<svg aria-hidden="true" style="position: absolute; width: 0; height: 0; overflow: hidden;" version="1.1" xmlns="http://www.w3.org/2000/svg" xmlns:xlink="http://www.w3.org/1999/xlink">
<defs>
    <symbol id="icon-logo" viewBox="0 0 41 32">
        <path fill="#ffe550" style="fill: var(--color1, #ffe550)" d="M14.142 6.456c1.011-1.982 3.836-1.982 4.847 0l1.279 2.51c0.396 0.776 1.138 1.316 1.997 1.453l2.772 0.441c2.196 0.35 3.070 3.049 1.497 4.625l-1.978 1.983c-0.616 0.617-0.9 1.493-0.764 2.356l0.437 2.773c0.347 2.2-1.94 3.868-3.921 2.859l-2.51-1.278c-0.775-0.394-1.69-0.394-2.465 0l-2.51 1.278c-1.981 1.009-4.267-0.659-3.921-2.859l0.437-2.773c0.136-0.863-0.148-1.738-0.764-2.356l-1.978-1.983c-1.572-1.576-0.699-4.276 1.497-4.625l2.772-0.441c0.859-0.137 1.601-0.677 1.996-1.453l1.279-2.51z"></path>
        <path fill="#2c2c2c" style="fill: var(--color2, #2c2c2c)" d="M1.116 20.357l-0.021 0.005c0.003 0.074-0.001 0.374-0.011 0.9-0.003 0.524-0.004 0.868-0.002 1.032-0 0.157-0.004 0.285-0.010 0.384 0.001 0.097 0.001 0.209 0.001 0.336-0.001 0.12-0.008 0.219-0.019 0.296-0.006 0.069-0.012 0.137-0.018 0.206-0.014 0.13-0.042 0.201-0.084 0.211-0.092 0.022-0.235-0.049-0.431-0.212-0.197-0.17-0.31-0.319-0.341-0.447s-0.038-1.060-0.024-2.798c0.021-1.74-0.025-2.884-0.14-3.432-0.025-0.106-0.020-0.197 0.014-0.273 0.035-0.165 0.219-0.321 0.55-0.467 0.338-0.147 0.843-0.3 1.514-0.459 0.678-0.161 1.216-0.251 1.614-0.27 0.405-0.021 0.623 0.032 0.653 0.159 0.020 0.085-0.026 0.159-0.137 0.223s-0.211 0.117-0.298 0.16c-0.088 0.036-0.204 0.082-0.348 0.138-0.145 0.049-0.279 0.096-0.403 0.14-0.125 0.037-0.288 0.091-0.488 0.16-0.193 0.068-0.371 0.133-0.536 0.194-0.166 0.054-0.39 0.133-0.671 0.237s-0.463 0.169-0.546 0.197c0.012 0.020 0.023 0.051 0.033 0.093 0.079 0.333 0.122 1.13 0.129 2.392 0.443-0.082 0.91-0.204 1.402-0.365 0.498-0.163 0.804-0.258 0.917-0.284 0.268-0.064 0.416-0.039 0.443 0.075 0.052 0.22-0.212 0.476-0.791 0.77-0.572 0.293-1.222 0.525-1.95 0.697z"></path>
        <path fill="#2c2c2c" style="fill: var(--color2, #2c2c2c)" d="M8.033 18.406c-0.057-0.241-0.149-0.458-0.277-0.652-0.13-0.201-0.28-0.334-0.452-0.398-0.456 0.25-0.786 0.728-0.992 1.435-0.2 0.698-0.236 1.32-0.107 1.865s0.343 0.853 0.644 0.924c0.485-0.22 0.834-0.668 1.047-1.347 0.218-0.687 0.264-1.296 0.139-1.827zM5.269 19.161c0.117-0.611 0.331-1.14 0.643-1.588 0.317-0.456 0.684-0.734 1.101-0.833 0.424-0.1 0.82-0.003 1.187 0.291 0.366 0.287 0.61 0.689 0.733 1.206 0.12 0.51 0.121 1.063 0.001 1.66-0.122 0.59-0.36 1.113-0.714 1.571-0.349 0.449-0.767 0.731-1.254 0.847-0.36 0.085-0.7-0.010-1.019-0.286s-0.538-0.669-0.659-1.179c-0.122-0.517-0.128-1.080-0.019-1.689z"></path>
        <path fill="#2c2c2c" style="fill: var(--color2, #2c2c2c)" d="M12.833 17.269c-0.057-0.241-0.149-0.458-0.277-0.652-0.13-0.201-0.28-0.334-0.452-0.398-0.456 0.25-0.786 0.728-0.992 1.435-0.2 0.698-0.236 1.32-0.107 1.865s0.343 0.853 0.644 0.924c0.485-0.22 0.834-0.669 1.047-1.347 0.218-0.687 0.264-1.296 0.139-1.827zM10.070 18.025c0.117-0.611 0.331-1.14 0.643-1.588 0.317-0.456 0.684-0.734 1.101-0.833 0.424-0.1 0.82-0.003 1.188 0.291 0.366 0.287 0.61 0.689 0.733 1.206 0.12 0.51 0.121 1.063 0.001 1.66-0.122 0.59-0.36 1.113-0.714 1.571-0.349 0.449-0.767 0.731-1.254 0.846-0.36 0.085-0.7-0.010-1.019-0.286s-0.538-0.669-0.659-1.179c-0.122-0.517-0.129-1.080-0.019-1.689z"></path>
        <path fill="#2c2c2c" style="fill: var(--color2, #2c2c2c)" d="M17.839 11.037c0.113-0.027 0.276 0.047 0.488 0.221 0.218 0.165 0.349 0.34 0.392 0.524s0.079 0.729 0.107 1.635c0.026 0.899 0.031 1.836 0.016 2.811-0.020 2.188-0.111 3.301-0.273 3.34-0.099 0.023-0.223-0.011-0.371-0.103-0.143-0.101-0.226-0.197-0.247-0.289s-0.041-0.282-0.056-0.57c-0.525 0.872-1.045 1.369-1.561 1.491-0.311 0.074-0.627-0.001-0.948-0.224-0.314-0.225-0.507-0.489-0.579-0.794-0.104-0.439-0.11-0.987-0.019-1.644 0.096-0.666 0.308-1.299 0.636-1.9s0.742-0.961 1.244-1.080 0.922 0.099 1.262 0.655c0.005-1.586-0.077-2.819-0.248-3.699-0.050-0.212 0.002-0.337 0.158-0.374zM17.907 16.528c-0.090-0.382-0.234-0.689-0.43-0.919-0.189-0.232-0.375-0.326-0.559-0.283-0.304 0.072-0.57 0.333-0.799 0.784s-0.381 0.943-0.457 1.476c-0.070 0.525-0.063 0.965 0.021 1.319 0.030 0.127 0.1 0.219 0.211 0.275s0.229 0.069 0.356 0.039c0.275-0.065 0.599-0.351 0.972-0.858 0.38-0.509 0.612-1.057 0.696-1.645l0.002-0.135-0.013-0.053z"></path>
        <path fill="#2c2c2c" style="fill: var(--color2, #2c2c2c)" d="M24.67 15.892c0.137 0.581-0.009 1.131-0.438 1.651-0.431 0.513-0.985 0.85-1.663 1.010-0.671 0.159-1.266 0.117-1.786-0.127-0.522-0.25-0.819-0.531-0.893-0.843-0.050-0.212-0.012-0.334 0.115-0.364 0.113-0.027 0.376 0.091 0.788 0.352 0.156 0.090 0.352 0.163 0.589 0.22 0.244 0.054 0.486 0.053 0.726-0.004 0.494-0.117 0.902-0.348 1.223-0.693 0.328-0.347 0.457-0.669 0.387-0.966-0.045-0.191-0.23-0.405-0.555-0.643s-0.673-0.45-1.046-0.638c-0.367-0.197-0.714-0.418-1.040-0.662s-0.51-0.455-0.552-0.632-0.051-0.373-0.027-0.588c0.024-0.215 0.067-0.379 0.13-0.491 0.203-0.37 0.565-0.751 1.084-1.143 0.526-0.394 0.987-0.637 1.382-0.731 0.205-0.049 0.394-0.022 0.567 0.079s0.277 0.226 0.312 0.375c0.017 0.071-0.044 0.145-0.182 0.223s-0.351 0.188-0.638 0.33c-0.282 0.134-0.528 0.275-0.739 0.422-0.739 0.504-1.074 0.901-1.005 1.191 0.037 0.156 0.553 0.493 1.548 1.013 0.383 0.201 0.745 0.455 1.087 0.763 0.347 0.299 0.555 0.598 0.625 0.895z"></path>
        <path fill="#2c2c2c" style="fill: var(--color2, #2c2c2c)" d="M27.104 16.426c0.032 0.135 0.125 0.183 0.281 0.147 0.268-0.064 0.576-0.215 0.922-0.454 0.352-0.248 0.549-0.377 0.591-0.387 0.127-0.030 0.207 0.022 0.238 0.157 0.049 0.205-0.107 0.493-0.467 0.862-0.353 0.368-0.703 0.593-1.049 0.674-0.339 0.080-0.643 0.055-0.913-0.076-0.271-0.138-0.43-0.306-0.477-0.504s-0.064-0.46-0.051-0.784c0.011-0.332 0.035-0.767 0.072-1.307 0.042-0.548 0.069-1 0.083-1.354-0.314 0.156-0.527 0.248-0.64 0.275s-0.239-0.003-0.379-0.090c-0.134-0.095-0.214-0.196-0.239-0.302-0.040-0.17 0.38-0.441 1.262-0.815-0.012-0.618-0.071-1.153-0.178-1.607-0.050-0.212-0.005-0.335 0.137-0.369 0.12-0.028 0.287 0.014 0.5 0.128 0.212 0.107 0.34 0.256 0.385 0.447s0.065 0.542 0.058 1.052c0.394-0.131 0.711-0.225 0.952-0.281 0.424-0.1 0.657-0.058 0.701 0.126 0.025 0.106-0.071 0.222-0.287 0.348-0.209 0.124-0.664 0.348-1.363 0.67-0.016 0.594-0.052 1.28-0.107 2.055-0.057 0.769-0.067 1.231-0.030 1.387z"></path>
        <path fill="#2c2c2c" style="fill: var(--color2, #2c2c2c)" d="M31.839 10.864c0.318-0.075 0.649 0.018 0.995 0.28 0.344 0.255 0.547 0.514 0.608 0.776 0.060 0.255 0.034 0.538-0.079 0.849 0.11 0.086 0.174 0.168 0.192 0.246 0.047 0.198 0.081 0.549 0.103 1.052 0.029 0.502 0.051 0.829 0.065 0.983 0.021 0.152 0.035 0.276 0.043 0.371 0.006 0.088 0.008 0.177 0.007 0.267 0.014 0.184-0.029 0.287-0.128 0.311-0.127 0.030-0.259-0.055-0.396-0.254-0.131-0.208-0.246-0.488-0.344-0.838-0.44 0.949-0.928 1.487-1.464 1.614-0.325 0.077-0.679 0.015-1.062-0.186-0.378-0.21-0.602-0.463-0.672-0.761-0.1-0.425-0.069-0.986 0.095-1.682 0.162-0.704 0.432-1.358 0.811-1.964s0.787-0.96 1.225-1.064zM32.768 12.618c-0.156-0.659-0.364-0.957-0.626-0.895-0.275 0.065-0.55 0.34-0.823 0.823-0.275 0.476-0.481 0.992-0.619 1.548s-0.171 0.979-0.103 1.269c0.028 0.12 0.101 0.208 0.219 0.262 0.116 0.047 0.241 0.055 0.375 0.024 0.332-0.079 0.654-0.39 0.965-0.935 0.31-0.552 0.469-1.169 0.48-1.852-0.004-0.111 0.041-0.189 0.135-0.234l-0.002-0.011z"></path>
        <path fill="#bbf330" style="fill: var(--color3, #bbf330)" d="M30.759 19.973c-0.303 0.075-0.542 0.306-0.642 0.602-1.906 5.65-7.244 9.719-13.535 9.719-3.815 0-7.279-1.497-9.841-3.935-0.226-0.215-0.543-0.307-0.845-0.232-0.639 0.158-0.88 0.934-0.406 1.392 2.874 2.774 6.784 4.48 11.092 4.48 7.078 0 13.081-4.605 15.182-10.986 0.206-0.626-0.368-1.199-1.006-1.041z"></path>
        <path fill="#bbf330" style="fill: var(--color3, #bbf330)" d="M1.867 14.15c0.345-0.085 0.601-0.374 0.665-0.725 1.211-6.664 7.039-11.72 14.051-11.72 4.559 0 8.617 2.137 11.232 5.464 0.219 0.279 0.579 0.414 0.923 0.328 0.584-0.144 0.847-0.825 0.478-1.301-2.924-3.771-7.495-6.198-12.633-6.198-7.881 0-14.431 5.711-15.743 13.225-0.104 0.592 0.445 1.070 1.027 0.926z"></path>
        <path fill="#bbf330" style="fill: var(--color3, #bbf330)" d="M40.615 5.331c-3.777 7.241-5.435 2.465-10.752 5.271 0.532-8.406 6.163-3.291 10.752-5.271z"></path>
    </symbol>
    <symbol id="icon-hamburger" viewBox="0 0 32 32">
        <path d="M2.666 8c0-0.354 0.14-0.693 0.391-0.943s0.589-0.391 0.943-0.391h24c0.354 0 0.693 0.14 0.943 0.391s0.39 0.589 0.39 0.943c0 0.354-0.14 0.693-0.39 0.943s-0.589 0.391-0.943 0.391h-24c-0.354 0-0.693-0.14-0.943-0.391s-0.391-0.589-0.391-0.943zM2.666 16.043c0-0.354 0.14-0.693 0.391-0.943s0.589-0.39 0.943-0.39h24c0.354 0 0.693 0.14 0.943 0.39s0.39 0.589 0.39 0.943c0 0.354-0.14 0.693-0.39 0.943s-0.589 0.39-0.943 0.39h-24c-0.354 0-0.693-0.14-0.943-0.39s-0.391-0.589-0.391-0.943zM4 22.752c-0.354 0-0.693 0.141-0.943 0.39s-0.391 0.589-0.391 0.943 0.14 0.693 0.391 0.943c0.25 0.25 0.589 0.39 0.943 0.39h24c0.354 0 0.693-0.14 0.943-0.39s0.39-0.589 0.39-0.943c0-0.354-0.14-0.693-0.39-0.943s-0.589-0.39-0.943-0.39h-24z"></path>
    </symbol>
    <symbol id="icon-slider-arrow-up" viewBox="0 0 37 32">
        <path fill="#fff" style="fill: var(--color1, #fff)" d="M33.778 3.556v17.778c0 1.964-1.592 3.556-3.556 3.556h-23.111c-1.964 0-3.556-1.592-3.556-3.556v-17.778c0-1.964 1.592-3.556 3.556-3.556h23.111c1.964 0 3.556 1.592 3.556 3.556z"></path>
        <path fill="#fff" style="fill: var(--color1, #fff); stroke: var(--color2, #2c2c2c)" stroke="#2c2c2c" stroke-linejoin="miter" stroke-linecap="butt" stroke-miterlimit="4" stroke-width="0.8889" d="M25.102 12.203v0c0.033 0.031 0.059 0.069 0.076 0.11v0c0.018 0.041 0.027 0.086 0.027 0.131s-0.009 0.090-0.027 0.131v0c-0.018 0.041-0.044 0.079-0.076 0.11v0l-8.669 8.26c-0.062 0.059-0.144 0.092-0.23 0.092-0.084 0-0.165-0.032-0.227-0.089l-0.005-0.005 0-0-0.008-0.008c-0.027-0.025-0.048-0.056-0.062-0.090s-0.022-0.070-0.022-0.107 0.007-0.073 0.022-0.107c0.015-0.034 0.036-0.064 0.062-0.090l0-0 8.501-8.096-8.502-8.1c-0.027-0.025-0.048-0.056-0.062-0.090s-0.022-0.070-0.022-0.107 0.007-0.073 0.022-0.107c0.015-0.034 0.036-0.064 0.062-0.090l0 0 0.008-0.008 0.005-0.005c0.062-0.057 0.143-0.089 0.227-0.089 0.086 0 0.168 0.033 0.23 0.092l0 0 8.669 8.26z"></path>
    </symbol>
    <symbol id="icon-slider-arrow-down" viewBox="0 0 37 32">
        <path fill="#fff" style="fill: var(--color1, #fff)" d="M3.556 21.333v-17.778c0-1.964 1.592-3.556 3.556-3.556h23.111c1.964 0 3.556 1.592 3.556 3.556v17.778c0 1.964-1.592 3.556-3.556 3.556h-23.111c-1.964 0-3.556-1.592-3.556-3.556z"></path>
        <path fill="#fff" style="fill: var(--color1, #fff); stroke: var(--color2, #2c2c2c)" stroke="#2c2c2c" stroke-linejoin="miter" stroke-linecap="butt" stroke-miterlimit="4" stroke-width="0.8889" d="M12.231 12.686v0c-0.033-0.031-0.059-0.069-0.076-0.11v0c-0.018-0.041-0.027-0.086-0.027-0.131s0.009-0.090 0.027-0.131v0c0.018-0.041 0.044-0.079 0.076-0.11v-0l8.669-8.26c0.062-0.059 0.144-0.092 0.23-0.092 0.084 0 0.165 0.032 0.227 0.089l0.005 0.005-0 0 0.008 0.008c0.027 0.025 0.048 0.056 0.062 0.090s0.022 0.070 0.022 0.107-0.007 0.073-0.022 0.107c-0.015 0.034-0.036 0.064-0.062 0.090l-0 0-8.501 8.096 8.502 8.1c0.027 0.025 0.048 0.056 0.062 0.090s0.022 0.070 0.022 0.107c0 0.037-0.007 0.073-0.022 0.107s-0.036 0.064-0.062 0.090l-0-0-0.008 0.008-0.005 0.005c-0.062 0.057-0.143 0.089-0.227 0.089-0.086 0-0.168-0.033-0.23-0.092l-0-0-8.669-8.26z"></path>
    </symbol>
    <symbol id="icon-ellipse" viewBox="0 0 69 32">
        <path d="M63.2 15.856c0 5.435-12.764 9.842-28.509 9.842s-28.509-4.406-28.509-9.842c0-5.435 12.764-9.842 28.509-9.842s28.509 4.406 28.509 9.842z"></path>
    </symbol>
    <symbol id="icon-rocket" viewBox="0 0 32 32">
        <path fill="#7eb101" style="fill: var(--color1, #7eb101)" d="M7.233 13.633l3.533 1.5c0.4-0.8 0.828-1.589 1.283-2.367s0.939-1.522 1.45-2.233l-2.633-0.533-3.633 3.633zM12.367 16.333l4.433 4.433c1.267-0.578 2.456-1.233 3.567-1.967s2.011-1.444 2.7-2.133c1.8-1.8 3.122-3.644 3.967-5.533s1.3-4.022 1.367-6.4c-2.378 0.067-4.511 0.522-6.4 1.367s-3.733 2.167-5.533 3.967c-0.689 0.689-1.4 1.589-2.133 2.7s-1.389 2.3-1.967 3.567zM20 13.133c-0.444-0.444-0.667-0.995-0.667-1.65s0.222-1.206 0.667-1.65 0.994-0.667 1.65-0.667c0.656 0 1.206 0.222 1.65 0.667s0.667 0.994 0.667 1.65c0 0.655-0.222 1.206-0.667 1.65s-0.994 0.667-1.65 0.667-1.206-0.222-1.65-0.667zM19.5 25.9l3.633-3.633-0.533-2.633c-0.711 0.511-1.456 0.994-2.233 1.45s-1.567 0.883-2.367 1.283l1.5 3.533zM30.367 2.767c0.2 3.022-0.178 5.778-1.133 8.267s-2.533 4.833-4.733 7.033l-0.133 0.133 0.733 3.667c0.067 0.333 0.050 0.656-0.050 0.967s-0.272 0.589-0.517 0.833l-5.7 5.733-2.833-6.6-5.667-5.667-6.6-2.833 5.733-5.7c0.244-0.244 0.522-0.417 0.833-0.517s0.633-0.117 0.967-0.050l3.667 0.733c0.022-0.022 0.044-0.039 0.067-0.050s0.044-0.028 0.067-0.050c2.2-2.2 4.544-3.783 7.033-4.75s5.244-1.35 8.267-1.15zM5.967 21.167c0.778-0.778 1.728-1.172 2.85-1.183s2.072 0.372 2.85 1.15c0.778 0.778 1.161 1.728 1.15 2.85s-0.406 2.072-1.183 2.85c-0.578 0.578-1.472 1.055-2.683 1.433s-3.028 0.733-5.45 1.067c0.333-2.422 0.683-4.244 1.050-5.467s0.839-2.122 1.417-2.7zM7.367 22.6c-0.311 0.333-0.589 0.856-0.833 1.567s-0.456 1.622-0.633 2.733c1.111-0.178 2.022-0.389 2.733-0.633s1.233-0.522 1.567-0.833c0.422-0.378 0.639-0.85 0.65-1.417s-0.183-1.061-0.583-1.483c-0.422-0.4-0.917-0.595-1.483-0.583s-1.039 0.228-1.417 0.65z"></path>
    </symbol>
    <symbol id="icon-touch-app" viewBox="0 0 32 32">
        <path fill="#7eb101" style="fill: var(--color1, #7eb101)" d="M15.5 1.333c2.022 0 3.75 0.706 5.183 2.117s2.15 3.128 2.15 5.15c0 1.156-0.25 2.244-0.75 3.267s-1.206 1.889-2.117 2.6h-1.133v-1.667c0.644-0.511 1.139-1.133 1.483-1.867s0.517-1.511 0.517-2.333c0-1.467-0.522-2.711-1.567-3.733s-2.3-1.533-3.767-1.533c-1.467 0-2.722 0.511-3.767 1.533s-1.567 2.267-1.567 3.733c0 0.822 0.172 1.6 0.517 2.333s0.839 1.356 1.483 1.867v2.4c-1.244-0.645-2.222-1.556-2.933-2.733s-1.067-2.467-1.067-3.867c0-2.022 0.717-3.739 2.15-5.15s3.161-2.117 5.183-2.117zM14.234 29.333c-0.378 0-0.733-0.072-1.067-0.217s-0.622-0.339-0.867-0.583l-6.867-6.867 1.867-1.933c0.311-0.311 0.661-0.55 1.050-0.717s0.794-0.194 1.217-0.083l2.6 0.6v-10.867c0-0.933 0.322-1.722 0.967-2.367s1.433-0.967 2.367-0.967c0.933 0 1.722 0.322 2.367 0.967s0.967 1.433 0.967 2.367v5.733h0.867c0.111 0 0.211 0.022 0.3 0.067s0.189 0.089 0.3 0.133l4.933 2.4c0.533 0.244 0.928 0.639 1.183 1.183s0.328 1.106 0.217 1.683l-1.2 7.267c-0.111 0.645-0.422 1.172-0.933 1.583s-1.089 0.617-1.733 0.617h-8.533zM13.967 27.333h9.367l1.433-8.3-6.1-3.033h-1.833v-7.333c0-0.4-0.122-0.722-0.367-0.967s-0.567-0.367-0.967-0.367-0.722 0.122-0.967 0.367c-0.245 0.244-0.367 0.567-0.367 0.967v13.3l-5.133-1.1-0.767 0.767 5.7 5.7zM23.334 27.333v0z"></path>
    </symbol>
    <symbol id="icon-chevron" viewBox="0 0 34 32">
        <path d="M21.931 15.709c0.353 0.353 0.353 0.924 0 1.277l-9.206 9.206c-0.353 0.353-0.924 0.353-1.277 0l-0.426-0.426c-0.353-0.353-0.353-0.924 0-1.277l8.142-8.142-8.142-8.142c-0.353-0.353-0.353-0.924 0-1.277l0.426-0.426c0.353-0.353 0.924-0.353 1.277 0l9.206 9.206z"></path>
    </symbol>
    <symbol id="icon-stars" viewBox="0 0 202 32">
        <path fill="#ffe550" style="fill: var(--color1, #ffe550)" d="M15.421 1.037c0.584-1.383 2.575-1.383 3.159 0l3.449 8.164c0.247 0.583 0.804 0.982 1.443 1.032l8.952 0.707c1.517 0.12 2.132 1.983 0.976 2.958l-6.821 5.752c-0.487 0.411-0.7 1.056-0.551 1.67l2.084 8.6c0.353 1.457-1.257 2.609-2.556 1.828l-7.664-4.609c-0.547-0.329-1.236-0.329-1.783 0l-7.664 4.609c-1.299 0.781-2.909-0.371-2.556-1.828l2.084-8.6c0.149-0.614-0.064-1.259-0.551-1.67l-6.821-5.752c-1.156-0.975-0.541-2.838 0.976-2.958l8.952-0.707c0.639-0.050 1.196-0.449 1.443-1.032l3.449-8.164z"></path>
        <path fill="#ffe550" style="fill: var(--color1, #ffe550)" d="M57.421 1.037c0.584-1.383 2.575-1.383 3.159 0l3.449 8.164c0.247 0.583 0.804 0.982 1.443 1.032l8.952 0.707c1.517 0.12 2.132 1.983 0.976 2.958l-6.821 5.752c-0.487 0.411-0.7 1.056-0.551 1.67l2.084 8.6c0.353 1.457-1.257 2.609-2.556 1.828l-7.664-4.609c-0.548-0.329-1.236-0.329-1.783 0l-7.664 4.609c-1.299 0.781-2.909-0.371-2.556-1.828l2.084-8.6c0.149-0.614-0.064-1.259-0.551-1.67l-6.821-5.752c-1.156-0.975-0.541-2.838 0.976-2.958l8.952-0.707c0.639-0.050 1.196-0.449 1.443-1.032l3.449-8.164z"></path>
        <path fill="#ffe550" style="fill: var(--color1, #ffe550)" d="M99.421 1.037c0.584-1.383 2.575-1.383 3.159 0l3.449 8.164c0.247 0.583 0.804 0.982 1.443 1.032l8.952 0.707c1.517 0.12 2.132 1.983 0.976 2.958l-6.821 5.752c-0.487 0.411-0.7 1.056-0.551 1.67l2.084 8.6c0.353 1.457-1.257 2.609-2.556 1.828l-7.664-4.609c-0.548-0.329-1.236-0.329-1.783 0l-7.664 4.609c-1.299 0.781-2.909-0.371-2.556-1.828l2.084-8.6c0.149-0.614-0.064-1.259-0.551-1.67l-6.821-5.752c-1.156-0.975-0.541-2.838 0.976-2.958l8.952-0.707c0.639-0.050 1.196-0.449 1.443-1.032l3.449-8.164z"></path>
        <path fill="#ffe550" style="fill: var(--color1, #ffe550)" d="M141.421 1.037c0.584-1.383 2.575-1.383 3.159 0l3.449 8.164c0.247 0.583 0.804 0.982 1.443 1.032l8.952 0.707c1.517 0.12 2.132 1.983 0.976 2.958l-6.821 5.752c-0.487 0.411-0.7 1.056-0.551 1.67l2.084 8.6c0.353 1.457-1.257 2.609-2.556 1.828l-7.664-4.609c-0.548-0.329-1.236-0.329-1.783 0l-7.664 4.609c-1.299 0.781-2.909-0.371-2.556-1.828l2.084-8.6c0.149-0.614-0.064-1.259-0.551-1.67l-6.821-5.752c-1.156-0.975-0.541-2.838 0.976-2.958l8.952-0.707c0.639-0.050 1.196-0.449 1.443-1.032l3.449-8.164z"></path>
        <path fill="#ffe550" style="fill: var(--color1, #ffe550)" d="M183.421 1.037c0.584-1.383 2.575-1.383 3.159 0l3.449 8.164c0.247 0.583 0.804 0.982 1.443 1.032l8.953 0.707c1.516 0.12 2.132 1.983 0.976 2.958l-6.821 5.752c-0.487 0.411-0.7 1.056-0.551 1.67l2.084 8.6c0.353 1.457-1.257 2.609-2.556 1.828l-7.664-4.609c-0.548-0.329-1.236-0.329-1.783 0l-7.664 4.609c-1.299 0.781-2.909-0.371-2.556-1.828l2.084-8.6c0.149-0.614-0.064-1.259-0.551-1.67l-6.821-5.752c-1.156-0.975-0.541-2.838 0.976-2.958l8.952-0.707c0.639-0.050 1.196-0.449 1.443-1.032l3.449-8.164z"></path>
    </symbol>
    <symbol id="icon-invalid" viewBox="0 0 32 32">
        <path fill="none" stroke="#ff705d" style="stroke: var(--color1, #ff705d)" stroke-linejoin="round" stroke-linecap="round" stroke-miterlimit="4" stroke-width="2.2857" d="M16 11.429v6.857"></path>
        <path fill="none" stroke="#ff705d" style="stroke: var(--color1, #ff705d)" stroke-linejoin="round" stroke-linecap="round" stroke-miterlimit="4" stroke-width="2.2857" d="M16.002 26.286c0.631 0 1.143-0.512 1.143-1.143s-0.512-1.143-1.143-1.143c-0.631 0-1.143 0.512-1.143 1.143s0.512 1.143 1.143 1.143z"></path>
        <path fill="none" stroke="#ff705d" style="stroke: var(--color1, #ff705d)" stroke-linejoin="round" stroke-linecap="round" stroke-miterlimit="4" stroke-width="2.2857" d="M18.036 2.4c-0.192-0.374-0.483-0.689-0.842-0.908s-0.771-0.336-1.192-0.336c-0.421 0-0.833 0.116-1.192 0.336s-0.65 0.534-0.842 0.908l-12.571 25.143c-0.175 0.348-0.259 0.735-0.242 1.124s0.132 0.768 0.336 1.1c0.204 0.332 0.489 0.606 0.829 0.797s0.723 0.291 1.112 0.293h25.143c0.39-0.001 0.772-0.102 1.112-0.293s0.625-0.465 0.829-0.797c0.204-0.332 0.319-0.711 0.336-1.1s-0.067-0.776-0.243-1.124l-12.571-25.143z"></path>
    </symbol>
    <symbol id="icon-footer-logo" viewBox="0 0 43 32">
        <path fill="#ffe550" style="fill: var(--color1, #ffe550)" d="M14.732 8.449c1.446-2.818 5.48-2.818 6.926 0 0.565 1.1 1.627 1.867 2.849 2.060 3.119 0.493 4.381 4.322 2.144 6.55-0.878 0.874-1.283 2.117-1.088 3.34 0.494 3.117-2.785 5.468-5.601 4.043-1.105-0.559-2.428-0.559-3.533 0-2.816 1.424-6.095-0.927-5.601-4.043 0.194-1.223-0.211-2.466-1.088-3.34-2.238-2.227-0.975-6.057 2.144-6.55 1.221-0.193 2.284-0.96 2.849-2.060z"></path>
        <path fill="#2c2c2c" style="fill: var(--color2, #2c2c2c)" d="M2.709 20.651l-0.021 0.005c0.003 0.074-0.001 0.373-0.012 0.898-0.003 0.523-0.004 0.866-0.003 1.030-0 0.157-0.004 0.284-0.010 0.383 0.001 0.097 0.001 0.209 0.001 0.335-0.002 0.12-0.008 0.218-0.020 0.296-0.006 0.069-0.012 0.137-0.019 0.206-0.014 0.13-0.042 0.2-0.085 0.21-0.092 0.022-0.237-0.049-0.433-0.211-0.198-0.17-0.312-0.318-0.343-0.445s-0.038-1.058-0.022-2.792c0.022-1.736-0.024-2.877-0.139-3.425-0.025-0.106-0.020-0.197 0.014-0.272 0.036-0.165 0.22-0.32 0.554-0.466 0.34-0.147 0.848-0.3 1.524-0.459 0.683-0.161 1.224-0.251 1.625-0.27 0.408-0.021 0.627 0.032 0.657 0.159 0.020 0.085-0.026 0.159-0.138 0.223s-0.212 0.117-0.3 0.16c-0.089 0.036-0.206 0.082-0.35 0.138-0.146 0.049-0.281 0.096-0.406 0.14-0.126 0.037-0.29 0.091-0.491 0.16-0.194 0.068-0.374 0.133-0.539 0.194-0.167 0.054-0.393 0.133-0.676 0.237s-0.467 0.169-0.55 0.196c0.012 0.020 0.023 0.050 0.033 0.093 0.079 0.332 0.122 1.127 0.129 2.386 0.446-0.082 0.916-0.204 1.411-0.365 0.502-0.163 0.81-0.258 0.923-0.284 0.27-0.064 0.419-0.039 0.446 0.074 0.052 0.219-0.213 0.475-0.797 0.769-0.576 0.292-1.231 0.524-1.963 0.696z"></path>
        <path fill="#2c2c2c" style="fill: var(--color2, #2c2c2c)" d="M9.672 18.701c-0.057-0.24-0.15-0.457-0.279-0.651-0.13-0.201-0.282-0.333-0.455-0.397-0.459 0.25-0.792 0.727-0.999 1.432-0.202 0.696-0.239 1.317-0.109 1.861s0.345 0.851 0.647 0.922c0.488-0.219 0.84-0.667 1.054-1.344 0.22-0.686 0.267-1.293 0.14-1.823zM6.89 19.456c0.118-0.61 0.334-1.138 0.648-1.584 0.32-0.456 0.689-0.733 1.109-0.831 0.427-0.1 0.825-0.004 1.195 0.29 0.368 0.286 0.614 0.687 0.737 1.203 0.121 0.509 0.121 1.061-0 1.656-0.123 0.588-0.363 1.111-0.719 1.568-0.351 0.448-0.772 0.73-1.263 0.845-0.363 0.085-0.704-0.010-1.025-0.285s-0.542-0.667-0.663-1.176c-0.123-0.516-0.129-1.077-0.018-1.685z"></path>
        <path fill="#2c2c2c" style="fill: var(--color2, #2c2c2c)" d="M14.505 17.565c-0.057-0.24-0.15-0.457-0.279-0.651-0.13-0.201-0.282-0.333-0.455-0.397-0.459 0.25-0.792 0.727-0.999 1.432-0.202 0.696-0.239 1.317-0.109 1.861s0.345 0.851 0.647 0.922c0.488-0.219 0.84-0.667 1.054-1.344 0.22-0.686 0.267-1.293 0.14-1.823zM11.723 18.32c0.118-0.61 0.334-1.138 0.648-1.584 0.32-0.456 0.689-0.733 1.109-0.831 0.427-0.1 0.825-0.004 1.195 0.29 0.368 0.286 0.614 0.687 0.737 1.203 0.121 0.509 0.121 1.061-0 1.656-0.123 0.588-0.363 1.111-0.719 1.568-0.351 0.448-0.772 0.73-1.263 0.845-0.363 0.085-0.704-0.010-1.025-0.285s-0.542-0.667-0.663-1.176c-0.123-0.516-0.129-1.077-0.018-1.685z"></path>
        <path fill="#2c2c2c" style="fill: var(--color2, #2c2c2c)" d="M19.547 11.345c0.114-0.027 0.278 0.047 0.492 0.22 0.219 0.165 0.351 0.339 0.395 0.523s0.079 0.727 0.107 1.631c0.026 0.897 0.030 1.832 0.014 2.805-0.021 2.183-0.113 3.294-0.277 3.332-0.1 0.023-0.224-0.011-0.374-0.102-0.144-0.1-0.227-0.197-0.249-0.288s-0.041-0.281-0.056-0.569c-0.529 0.87-1.053 1.366-1.572 1.488-0.313 0.074-0.631-0.001-0.954-0.223-0.316-0.224-0.51-0.488-0.583-0.792-0.104-0.438-0.11-0.985-0.019-1.64 0.097-0.664 0.311-1.296 0.641-1.896s0.748-0.959 1.253-1.078c0.505-0.119 0.928 0.099 1.27 0.652 0.006-1.583-0.076-2.813-0.248-3.69-0.050-0.212 0.003-0.336 0.159-0.373zM19.612 16.823c-0.091-0.381-0.235-0.687-0.432-0.917-0.19-0.231-0.378-0.325-0.563-0.282-0.306 0.072-0.574 0.333-0.805 0.782s-0.384 0.941-0.46 1.473c-0.071 0.524-0.064 0.962 0.020 1.316 0.030 0.127 0.101 0.219 0.212 0.275s0.23 0.069 0.358 0.039c0.277-0.065 0.604-0.351 0.979-0.857 0.382-0.508 0.616-1.055 0.702-1.642l0.002-0.135-0.013-0.053z"></path>
        <path fill="#2c2c2c" style="fill: var(--color2, #2c2c2c)" d="M26.421 16.184c0.138 0.579-0.009 1.128-0.441 1.648-0.434 0.512-0.992 0.849-1.675 1.009-0.675 0.159-1.275 0.117-1.798-0.125-0.525-0.25-0.824-0.53-0.898-0.841-0.050-0.212-0.012-0.333 0.116-0.363 0.114-0.027 0.378 0.090 0.793 0.351 0.157 0.090 0.354 0.163 0.593 0.219 0.246 0.054 0.489 0.053 0.731-0.004 0.498-0.117 0.908-0.348 1.232-0.692 0.331-0.346 0.461-0.668 0.39-0.964-0.045-0.191-0.231-0.404-0.558-0.641s-0.677-0.449-1.052-0.636c-0.37-0.197-0.719-0.417-1.047-0.66s-0.513-0.454-0.555-0.63c-0.042-0.177-0.051-0.372-0.027-0.587s0.068-0.378 0.131-0.49c0.205-0.369 0.569-0.749 1.091-1.14 0.53-0.393 0.994-0.636 1.392-0.73 0.206-0.048 0.396-0.022 0.571 0.078s0.279 0.225 0.314 0.374c0.017 0.071-0.044 0.145-0.184 0.222s-0.353 0.187-0.642 0.33c-0.284 0.134-0.532 0.274-0.744 0.421-0.744 0.503-1.081 0.899-1.012 1.189 0.037 0.155 0.556 0.492 1.558 1.010 0.386 0.2 0.75 0.454 1.093 0.761 0.349 0.298 0.559 0.596 0.629 0.893z"></path>
        <path fill="#2c2c2c" style="fill: var(--color2, #2c2c2c)" d="M28.87 16.716c0.032 0.134 0.126 0.183 0.283 0.146 0.27-0.064 0.58-0.215 0.928-0.453 0.354-0.247 0.552-0.376 0.595-0.386 0.128-0.030 0.208 0.022 0.24 0.156 0.049 0.205-0.108 0.492-0.471 0.86-0.356 0.367-0.708 0.592-1.056 0.674-0.341 0.080-0.648 0.055-0.919-0.075-0.273-0.137-0.433-0.305-0.48-0.503s-0.064-0.459-0.051-0.782c0.011-0.331 0.036-0.765 0.073-1.304 0.042-0.547 0.070-0.997 0.084-1.351-0.316 0.156-0.53 0.248-0.644 0.275s-0.241-0.003-0.382-0.089c-0.135-0.095-0.215-0.196-0.241-0.302-0.040-0.169 0.383-0.441 1.271-0.813-0.012-0.616-0.071-1.151-0.179-1.603-0.050-0.212-0.005-0.335 0.138-0.368 0.121-0.028 0.289 0.014 0.503 0.128 0.213 0.107 0.342 0.255 0.388 0.446s0.065 0.54 0.058 1.049c0.397-0.131 0.716-0.224 0.958-0.281 0.427-0.1 0.662-0.059 0.706 0.125 0.025 0.106-0.071 0.222-0.289 0.348-0.211 0.124-0.668 0.347-1.372 0.669-0.017 0.593-0.053 1.277-0.109 2.051-0.058 0.767-0.068 1.228-0.031 1.384z"></path>
        <path fill="#2c2c2c" style="fill: var(--color2, #2c2c2c)" d="M33.639 11.164c0.32-0.075 0.654 0.018 1.001 0.279 0.346 0.254 0.55 0.512 0.612 0.774 0.060 0.254 0.034 0.537-0.080 0.847 0.111 0.086 0.175 0.168 0.194 0.245 0.047 0.198 0.082 0.548 0.103 1.050 0.029 0.5 0.050 0.827 0.064 0.981 0.021 0.152 0.035 0.275 0.043 0.37 0.006 0.088 0.008 0.177 0.007 0.267 0.014 0.183-0.029 0.287-0.129 0.31-0.128 0.030-0.261-0.054-0.398-0.253-0.132-0.208-0.247-0.486-0.345-0.836-0.443 0.947-0.935 1.484-1.475 1.611-0.327 0.077-0.683 0.015-1.069-0.185-0.38-0.209-0.605-0.462-0.676-0.758-0.101-0.424-0.069-0.983 0.096-1.678 0.163-0.702 0.436-1.356 0.817-1.96s0.793-0.959 1.234-1.062zM34.574 12.914c-0.156-0.657-0.366-0.954-0.629-0.893-0.277 0.065-0.554 0.339-0.829 0.822-0.277 0.475-0.485 0.991-0.623 1.545s-0.173 0.977-0.104 1.266c0.029 0.12 0.102 0.207 0.22 0.262 0.116 0.047 0.242 0.055 0.377 0.023 0.334-0.079 0.658-0.39 0.972-0.933 0.312-0.551 0.473-1.167 0.484-1.848-0.004-0.111 0.041-0.189 0.136-0.233l-0.002-0.011z"></path>
        <path fill="#bbf330" style="fill: var(--color3, #bbf330)" d="M31.525 20.209c-0.487 0.12-0.876 0.479-1.073 0.941-2.018 4.725-6.731 8.048-12.24 8.048-3.194 0-6.121-1.117-8.41-2.977-0.387-0.315-0.896-0.451-1.38-0.331-1.085 0.267-1.487 1.578-0.635 2.3 2.808 2.376 6.448 3.811 10.425 3.811 6.774 0 12.57-4.161 14.944-10.053 0.416-1.034-0.549-2.004-1.631-1.738zM4.193 13.954c0.562-0.138 0.982-0.598 1.123-1.159 1.441-5.732 6.657-9.993 12.895-9.993 3.94 0 7.473 1.7 9.904 4.397 0.385 0.427 0.967 0.636 1.525 0.498 0.981-0.241 1.421-1.382 0.759-2.145-2.951-3.4-7.317-5.552-12.188-5.552-7.648 0-14.049 5.304-15.687 12.414-0.226 0.98 0.692 1.78 1.668 1.54z"></path>
        <path fill="#bbf330" style="fill: var(--color3, #bbf330); stroke: var(--color3, #bbf330)" stroke="#bbf330" stroke-linejoin="round" stroke-linecap="butt" stroke-miterlimit="4" stroke-width="1.0308" d="M42.409 5.331c-3.803 7.241-5.473 2.465-10.826 5.271 0.535-8.406 6.205-3.291 10.826-5.271z"></path>
    </symbol>


</defs>
</svg>
